<svg xmlns="http://www.w3.org/2000/svg" width="1600" height="820" viewBox="0 0 1600 820" role="img">
<title>OpenUSD triggering events per month</title>
<desc>Monthly source-trigger counts with and without rerun events.</desc>
<style>
text { font-family: Arial, sans-serif; fill: #24292f; }
.title { font-size: 28px; font-weight: 700; }
.subtitle { font-size: 16px; fill: #57606a; }
.axis { font-size: 13px; fill: #57606a; }
.value { font-size: 11px; font-weight: 700; }
.note { font-size: 14px; fill: #57606a; }
.grid { stroke: #d0d7de; stroke-width: 1; }
.axis-line { stroke: #57606a; stroke-width: 1.5; }
</style>
<text x="55.0" y="52.0" text-anchor="start" class="title">OpenUSD Triggering Events per Month</text>
<text x="55.0" y="82.0" text-anchor="start" class="subtitle">One source event counts once across workflows; the second bar adds inferred rerun events.</text>
<rect x="90.0" y="145.0" width="24.5" height="480.0" fill="#f6f8fa" />
<rect x="114.3" y="145.0" width="24.5" height="480.0" fill="#f6f8fa" />
<rect x="138.7" y="145.0" width="24.5" height="480.0" fill="#f6f8fa" />
<rect x="163.0" y="145.0" width="24.5" height="480.0" fill="#f6f8fa" />
<rect x="187.3" y="145.0" width="24.5" height="480.0" fill="#f6f8fa" />
<rect x="211.7" y="145.0" width="24.5" height="480.0" fill="#f6f8fa" />
<rect x="236.0" y="145.0" width="24.5" height="480.0" fill="#f6f8fa" />
<rect x="260.3" y="145.0" width="24.5" height="480.0" fill="#f6f8fa" />
<rect x="284.7" y="145.0" width="24.5" height="480.0" fill="#f6f8fa" />
<rect x="309.0" y="145.0" width="24.5" height="480.0" fill="#f6f8fa" />
<rect x="333.3" y="145.0" width="24.5" height="480.0" fill="#f6f8fa" />
<rect x="357.7" y="145.0" width="24.5" height="480.0" fill="#f6f8fa" />
<rect x="382.0" y="145.0" width="24.5" height="480.0" fill="#f6f8fa" />
<rect x="406.3" y="145.0" width="24.5" height="480.0" fill="#f6f8fa" />
<rect x="430.7" y="145.0" width="24.5" height="480.0" fill="#f6f8fa" />
<rect x="455.0" y="145.0" width="24.5" height="480.0" fill="#f6f8fa" />
<rect x="479.3" y="145.0" width="24.5" height="480.0" fill="#f6f8fa" />
<rect x="503.7" y="145.0" width="24.5" height="480.0" fill="#f6f8fa" />
<rect x="528.0" y="145.0" width="24.5" height="480.0" fill="#f6f8fa" />
<rect x="552.3" y="145.0" width="24.5" height="480.0" fill="#f6f8fa" />
<rect x="576.7" y="145.0" width="24.5" height="480.0" fill="#f6f8fa" />
<rect x="601.0" y="145.0" width="24.5" height="480.0" fill="#f6f8fa" />
<rect x="625.3" y="145.0" width="24.5" height="480.0" fill="#f6f8fa" />
<rect x="649.7" y="145.0" width="24.5" height="480.0" fill="#f6f8fa" />
<rect x="674.0" y="145.0" width="24.5" height="480.0" fill="#f6f8fa" />
<rect x="698.3" y="145.0" width="24.5" height="480.0" fill="#f6f8fa" />
<rect x="722.7" y="145.0" width="24.5" height="480.0" fill="#f6f8fa" />
<rect x="747.0" y="145.0" width="24.5" height="480.0" fill="#f6f8fa" />
<rect x="771.3" y="145.0" width="24.5" height="480.0" fill="#f6f8fa" />
<rect x="795.7" y="145.0" width="24.5" height="480.0" fill="#f6f8fa" />
<rect x="820.0" y="145.0" width="24.5" height="480.0" fill="#f6f8fa" />
<rect x="844.3" y="145.0" width="24.5" height="480.0" fill="#f6f8fa" />
<rect x="868.7" y="145.0" width="24.5" height="480.0" fill="#f6f8fa" />
<rect x="893.0" y="145.0" width="24.5" height="480.0" fill="#f6f8fa" />
<rect x="917.3" y="145.0" width="24.5" height="480.0" fill="#f6f8fa" />
<rect x="941.7" y="145.0" width="24.5" height="480.0" fill="#f6f8fa" />
<rect x="966.0" y="145.0" width="24.5" height="480.0" fill="#f6f8fa" />
<rect x="990.3" y="145.0" width="24.5" height="480.0" fill="#f6f8fa" />
<rect x="1014.7" y="145.0" width="24.5" height="480.0" fill="#f6f8fa" />
<rect x="1039.0" y="145.0" width="24.5" height="480.0" fill="#f6f8fa" />
<rect x="1063.3" y="145.0" width="24.5" height="480.0" fill="#f6f8fa" />
<rect x="1087.7" y="145.0" width="24.5" height="480.0" fill="#f6f8fa" />
<rect x="1112.0" y="145.0" width="24.5" height="480.0" fill="#f6f8fa" />
<rect x="1136.3" y="145.0" width="24.5" height="480.0" fill="#f6f8fa" />
<rect x="1160.7" y="145.0" width="24.5" height="480.0" fill="#f6f8fa" />
<rect x="1185.0" y="145.0" width="24.5" height="480.0" fill="#fff8c5" />
<rect x="1209.3" y="145.0" width="24.5" height="480.0" fill="#fff8c5" />
<line x1="90.0" y1="625.0" x2="1550.0" y2="625.0" class="grid" />
<text x="78.0" y="629.0" text-anchor="end" class="axis">0</text>
<line x1="90.0" y1="529.0" x2="1550.0" y2="529.0" class="grid" />
<text x="78.0" y="533.0" text-anchor="end" class="axis">20</text>
<line x1="90.0" y1="433.0" x2="1550.0" y2="433.0" class="grid" />
<text x="78.0" y="437.0" text-anchor="end" class="axis">40</text>
<line x1="90.0" y1="337.0" x2="1550.0" y2="337.0" class="grid" />
<text x="78.0" y="341.0" text-anchor="end" class="axis">60</text>
<line x1="90.0" y1="241.0" x2="1550.0" y2="241.0" class="grid" />
<text x="78.0" y="245.0" text-anchor="end" class="axis">80</text>
<line x1="90.0" y1="145.0" x2="1550.0" y2="145.0" class="grid" />
<text x="78.0" y="149.0" text-anchor="end" class="axis">100</text>
<line x1="90.0" y1="625.0" x2="1550.0" y2="625.0" class="axis-line" />
<text x="102.2" y="649.0" text-anchor="end" class="axis" transform="rotate(-45 102.2 649.0)">2021-10</text>
<text x="175.2" y="649.0" text-anchor="end" class="axis" transform="rotate(-45 175.2 649.0)">2022-01</text>
<text x="248.2" y="649.0" text-anchor="end" class="axis" transform="rotate(-45 248.2 649.0)">2022-04</text>
<text x="321.2" y="649.0" text-anchor="end" class="axis" transform="rotate(-45 321.2 649.0)">2022-07</text>
<text x="394.2" y="649.0" text-anchor="end" class="axis" transform="rotate(-45 394.2 649.0)">2022-10</text>
<text x="467.2" y="649.0" text-anchor="end" class="axis" transform="rotate(-45 467.2 649.0)">2023-01</text>
<text x="540.2" y="649.0" text-anchor="end" class="axis" transform="rotate(-45 540.2 649.0)">2023-04</text>
<text x="613.2" y="649.0" text-anchor="end" class="axis" transform="rotate(-45 613.2 649.0)">2023-07</text>
<text x="686.2" y="649.0" text-anchor="end" class="axis" transform="rotate(-45 686.2 649.0)">2023-10</text>
<text x="759.2" y="649.0" text-anchor="end" class="axis" transform="rotate(-45 759.2 649.0)">2024-01</text>
<text x="832.2" y="649.0" text-anchor="end" class="axis" transform="rotate(-45 832.2 649.0)">2024-04</text>
<text x="905.2" y="649.0" text-anchor="end" class="axis" transform="rotate(-45 905.2 649.0)">2024-07</text>
<text x="978.2" y="649.0" text-anchor="end" class="axis" transform="rotate(-45 978.2 649.0)">2024-10</text>
<text x="1051.2" y="649.0" text-anchor="end" class="axis" transform="rotate(-45 1051.2 649.0)">2025-01</text>
<text x="1124.2" y="649.0" text-anchor="end" class="axis" transform="rotate(-45 1124.2 649.0)">2025-04</text>
<text x="1197.2" y="649.0" text-anchor="end" class="axis" transform="rotate(-45 1197.2 649.0)">2025-07</text>
<text x="1270.2" y="649.0" text-anchor="end" class="axis" transform="rotate(-45 1270.2 649.0)">2025-10</text>
<text x="1343.2" y="649.0" text-anchor="end" class="axis" transform="rotate(-45 1343.2 649.0)">2026-01</text>
<text x="1416.2" y="649.0" text-anchor="end" class="axis" transform="rotate(-45 1416.2 649.0)">2026-04</text>
<text x="1489.2" y="649.0" text-anchor="end" class="axis" transform="rotate(-45 1489.2 649.0)">2026-07</text>
<rect x="1187.9" y="610.6" width="8.3" height="14.4" fill="#0969da" rx="1" />
<rect x="1196.2" y="610.6" width="8.3" height="14.4" fill="#bf8700" rx="1" />
<text x="1200.3" y="604.6" text-anchor="middle" class="value">3</text>
<rect x="1212.3" y="481.0" width="8.3" height="144.0" fill="#0969da" rx="1" />
<rect x="1220.5" y="481.0" width="8.3" height="144.0" fill="#bf8700" rx="1" />
<text x="1224.7" y="475.0" text-anchor="middle" class="value">30</text>
<rect x="1236.6" y="490.6" width="8.3" height="134.4" fill="#0969da" rx="1" />
<rect x="1244.9" y="485.8" width="8.3" height="139.2" fill="#bf8700" rx="1" />
<text x="1249.0" y="479.8" text-anchor="middle" class="value">29</text>
<rect x="1260.9" y="433.0" width="8.3" height="192.0" fill="#0969da" rx="1" />
<rect x="1269.2" y="413.8" width="8.3" height="211.2" fill="#bf8700" rx="1" />
<text x="1273.3" y="407.8" text-anchor="middle" class="value">44</text>
<rect x="1285.3" y="557.8" width="8.3" height="67.2" fill="#0969da" rx="1" />
<rect x="1293.5" y="553.0" width="8.3" height="72.0" fill="#bf8700" rx="1" />
<text x="1297.7" y="547.0" text-anchor="middle" class="value">15</text>
<rect x="1309.6" y="471.4" width="8.3" height="153.6" fill="#0969da" rx="1" />
<rect x="1317.9" y="466.6" width="8.3" height="158.4" fill="#bf8700" rx="1" />
<text x="1322.0" y="460.6" text-anchor="middle" class="value">33</text>
<rect x="1333.9" y="529.0" width="8.3" height="96.0" fill="#0969da" rx="1" />
<rect x="1342.2" y="529.0" width="8.3" height="96.0" fill="#bf8700" rx="1" />
<text x="1346.3" y="523.0" text-anchor="middle" class="value">20</text>
<rect x="1358.3" y="457.0" width="8.3" height="168.0" fill="#0969da" rx="1" />
<rect x="1366.5" y="447.4" width="8.3" height="177.6" fill="#bf8700" rx="1" />
<text x="1370.7" y="441.4" text-anchor="middle" class="value">37</text>
<rect x="1382.6" y="466.6" width="8.3" height="158.4" fill="#0969da" rx="1" />
<rect x="1390.9" y="452.2" width="8.3" height="172.8" fill="#bf8700" rx="1" />
<text x="1395.0" y="446.2" text-anchor="middle" class="value">36</text>
<rect x="1406.9" y="452.2" width="8.3" height="172.8" fill="#0969da" rx="1" />
<rect x="1415.2" y="409.0" width="8.3" height="216.0" fill="#bf8700" rx="1" />
<text x="1419.3" y="403.0" text-anchor="middle" class="value">45</text>
<rect x="1431.3" y="505.0" width="8.3" height="120.0" fill="#0969da" rx="1" />
<rect x="1439.5" y="495.4" width="8.3" height="129.6" fill="#bf8700" rx="1" />
<text x="1443.7" y="489.4" text-anchor="middle" class="value">27</text>
<rect x="1455.6" y="471.4" width="8.3" height="153.6" fill="#0969da" rx="1" />
<rect x="1463.9" y="466.6" width="8.3" height="158.4" fill="#bf8700" rx="1" />
<text x="1468.0" y="460.6" text-anchor="middle" class="value">33</text>
<rect x="1479.9" y="389.8" width="8.3" height="235.2" fill="#0969da" rx="1" />
<rect x="1488.2" y="375.4" width="8.3" height="249.6" fill="#bf8700" rx="1" />
<text x="1492.3" y="369.4" text-anchor="middle" class="value">52</text>
<rect x="1504.3" y="385.0" width="8.3" height="240.0" fill="#0969da" rx="1" />
<rect x="1512.5" y="385.0" width="8.3" height="240.0" fill="#bf8700" rx="1" />
<text x="1516.7" y="379.0" text-anchor="middle" class="value">50</text>
<rect x="1528.6" y="207.4" width="8.3" height="417.6" fill="#0969da" rx="1" />
<rect x="1536.9" y="188.2" width="8.3" height="436.8" fill="#bf8700" rx="1" />
<text x="1541.0" y="182.2" text-anchor="middle" class="value">91</text>
<rect x="90" y="710" width="18" height="18" fill="#0969da" />
<text x="116.0" y="724.0" text-anchor="start" class="note">Source events</text>
<rect x="245" y="710" width="18" height="18" fill="#bf8700" />
<text x="271.0" y="724.0" text-anchor="start" class="note">Source events plus reruns</text>
<rect x="500" y="710" width="18" height="18" fill="#fff8c5" />
<text x="526.0" y="724.0" text-anchor="start" class="note">Partial coverage</text>
<rect x="680" y="710" width="18" height="18" fill="#f6f8fa" />
<text x="706.0" y="724.0" text-anchor="start" class="note">Unavailable</text>
<text x="90.0" y="775.0" text-anchor="start" class="note">Inference clusters runs sharing a commit identity within five minutes. Reruns use job attempt start times.</text>
</svg>
